{
    "asset": {
        "generator": "FBX2glTF v0.9.7",
        "version": "2.0"
    },
    "scene": 0,
    "buffers": [
        {
            "byteLength": 68532,
            "uri": "scene.bin"
        }
    ],
    "bufferViews": [
        {
            "buffer": 0,
            "byteLength": 324,
            "byteOffset": 0
        },
        {
            "buffer": 0,
            "byteLength": 1296,
            "byteOffset": 324
        },
        {
            "buffer": 0,
            "byteLength": 480,
            "byteOffset": 1620,
            "target": 34963
        },
        {
            "buffer": 0,
            "byteLength": 1008,
            "byteOffset": 2100,
            "target": 34962
        },
        {
            "buffer": 0,
            "byteLength": 1008,
            "byteOffset": 3108,
            "target": 34962
        },
        {
            "buffer": 0,
            "byteLength": 672,
            "byteOffset": 4116,
            "target": 34962
        },
        {
            "buffer": 0,
            "byteLength": 4800,
            "byteOffset": 4788,
            "target": 34963
        },
        {
            "buffer": 0,
            "byteLength": 5796,
            "byteOffset": 9588,
            "target": 34962
        },
        {
            "buffer": 0,
            "byteLength": 5796,
            "byteOffset": 15384,
            "target": 34962
        },
        {
            "buffer": 0,
            "byteLength": 3864,
            "byteOffset": 21180,
            "target": 34962
        },
        {
            "buffer": 0,
            "byteLength": 2832,
            "byteOffset": 25044,
            "target": 34963
        },
        {
            "buffer": 0,
            "byteLength": 4032,
            "byteOffset": 27876,
            "target": 34962
        },
        {
            "buffer": 0,
            "byteLength": 4032,
            "byteOffset": 31908,
            "target": 34962
        },
        {
            "buffer": 0,
            "byteLength": 2688,
            "byteOffset": 35940,
            "target": 34962
        },
        {
            "buffer": 0,
            "byteLength": 4392,
            "byteOffset": 38628,
            "target": 34963
        },
        {
            "buffer": 0,
            "byteLength": 6048,
            "byteOffset": 43020,
            "target": 34962
        },
        {
            "buffer": 0,
            "byteLength": 6048,
            "byteOffset": 49068,
            "target": 34962
        },
        {
            "buffer": 0,
            "byteLength": 4032,
            "byteOffset": 55116,
            "target": 34962
        },
        {
            "buffer": 0,
            "byteLength": 240,
            "byteOffset": 59148,
            "target": 34963
        },
        {
            "buffer": 0,
            "byteLength": 504,
            "byteOffset": 59388,
            "target": 34962
        },
        {
            "buffer": 0,
            "byteLength": 504,
            "byteOffset": 59892,
            "target": 34962
        },
        {
            "buffer": 0,
            "byteLength": 336,
            "byteOffset": 60396,
            "target": 34962
        },
        {
            "buffer": 0,
            "byteLength": 720,
            "byteOffset": 60732,
            "target": 34963
        },
        {
            "buffer": 0,
            "byteLength": 900,
            "byteOffset": 61452,
            "target": 34962
        },
        {
            "buffer": 0,
            "byteLength": 900,
            "byteOffset": 62352,
            "target": 34962
        },
        {
            "buffer": 0,
            "byteLength": 600,
            "byteOffset": 63252,
            "target": 34962
        },
        {
            "buffer": 0,
            "byteLength": 744,
            "byteOffset": 63852,
            "target": 34963
        },
        {
            "buffer": 0,
            "byteLength": 1476,
            "byteOffset": 64596,
            "target": 34962
        },
        {
            "buffer": 0,
            "byteLength": 1476,
            "byteOffset": 66072,
            "target": 34962
        },
        {
            "buffer": 0,
            "byteLength": 984,
            "byteOffset": 67548,
            "target": 34962
        }
    ],
    "scenes": [
        {
            "name": "Root Scene",
            "nodes": [
                0
            ]
        }
    ],
    "accessors": [
        {
            "componentType": 5126,
            "type": "SCALAR",
            "count": 81,
            "bufferView": 0,
            "byteOffset": 0,
            "min": [
                0.0
            ],
            "max": [
                3.33333325386047
            ]
        },
        {
            "componentType": 5126,
            "type": "VEC4",
            "count": 81,
            "bufferView": 1,
            "byteOffset": 0
        },
        {
            "componentType": 5123,
            "type": "SCALAR",
            "count": 240,
            "bufferView": 2,
            "byteOffset": 0
        },
        {
            "componentType": 5126,
            "type": "VEC3",
            "count": 84,
            "bufferView": 3,
            "byteOffset": 0,
            "min": [
                -0.00216930382885039,
                -0.00216926517896354,
                -0.000639142992440611
            ],
            "max": [
                0.00216926564462483,
                0.00216929498128593,
                0.000639142992440611
            ]
        },
        {
            "componentType": 5126,
            "type": "VEC3",
            "count": 84,
            "bufferView": 4,
            "byteOffset": 0
        },
        {
            "componentType": 5126,
            "type": "VEC2",
            "count": 84,
            "bufferView": 5,
            "byteOffset": 0
        },
        {
            "componentType": 5123,
            "type": "SCALAR",
            "count": 2400,
            "bufferView": 6,
            "byteOffset": 0
        },
        {
            "componentType": 5126,
            "type": "VEC3",
            "count": 483,
            "bufferView": 7,
            "byteOffset": 0,
            "min": [
                -0.0042762947268784,
                -0.00427629007026553,
                -0.0573785416781902
            ],
            "max": [
                0.00427624676376581,
                0.00427624955773354,
                0.0573785379528999
            ]
        },
        {
            "componentType": 5126,
            "type": "VEC3",
            "count": 483,
            "bufferView": 8,
            "byteOffset": 0
        },
        {
            "componentType": 5126,
            "type": "VEC2",
            "count": 483,
            "bufferView": 9,
            "byteOffset": 0
        },
        {
            "componentType": 5123,
            "type": "SCALAR",
            "count": 1416,
            "bufferView": 10,
            "byteOffset": 0
        },
        {
            "componentType": 5126,
            "type": "VEC3",
            "count": 336,
            "bufferView": 11,
            "byteOffset": 0,
            "min": [
                -0.0291154719889164,
                -0.00197785976342857,
                -0.0278825853019953
            ],
            "max": [
                0.0216229055076838,
                -2.02655794367956e-08,
                0.0209675971418619
            ]
        },
        {
            "componentType": 5126,
            "type": "VEC3",
            "count": 336,
            "bufferView": 12,
            "byteOffset": 0
        },
        {
            "componentType": 5126,
            "type": "VEC2",
            "count": 336,
            "bufferView": 13,
            "byteOffset": 0
        },
        {
            "componentType": 5123,
            "type": "SCALAR",
            "count": 2196,
            "bufferView": 14,
            "byteOffset": 0
        },
        {
            "componentType": 5126,
            "type": "VEC3",
            "count": 504,
            "bufferView": 15,
            "byteOffset": 0,
            "min": [
                -0.00384290679357946,
                -0.0104233007878065,
                -0.00413752533495426
            ],
            "max": [
                0.00384292588569224,
                0.0134115070104599,
                0.00334137910977006
            ]
        },
        {
            "componentType": 5126,
            "type": "VEC3",
            "count": 504,
            "bufferView": 16,
            "byteOffset": 0
        },
        {
            "componentType": 5126,
            "type": "VEC2",
            "count": 504,
            "bufferView": 17,
            "byteOffset": 0
        },
        {
            "componentType": 5123,
            "type": "SCALAR",
            "count": 120,
            "bufferView": 18,
            "byteOffset": 0
        },
        {
            "componentType": 5126,
            "type": "VEC3",
            "count": 42,
            "bufferView": 19,
            "byteOffset": 0,
            "min": [
                -0.00381417269818485,
                -0.00381417036987841,
                -0.0362303741276264
            ],
            "max": [
                0.0038141249679029,
                0.00381412985734642,
                -0.0329610705375671
            ]
        },
        {
            "componentType": 5126,
            "type": "VEC3",
            "count": 42,
            "bufferView": 20,
            "byteOffset": 0
        },
        {
            "componentType": 5126,
            "type": "VEC2",
            "count": 42,
            "bufferView": 21,
            "byteOffset": 0
        },
        {
            "componentType": 5123,
            "type": "SCALAR",
            "count": 360,
            "bufferView": 22,
            "byteOffset": 0
        },
        {
            "componentType": 5126,
            "type": "VEC3",
            "count": 75,
            "bufferView": 23,
            "byteOffset": 0,
            "min": [
                -0.0353562198579311,
                -0.00129783595912158,
                -0.0336016565561295
            ],
            "max": [
                0.0255506988614798,
                -0.000597207515966147,
                0.0247146878391504
            ]
        },
        {
            "componentType": 5126,
            "type": "VEC3",
            "count": 75,
            "bufferView": 24,
            "byteOffset": 0
        },
        {
            "componentType": 5126,
            "type": "VEC2",
            "count": 75,
            "bufferView": 25,
            "byteOffset": 0
        },
        {
            "componentType": 5123,
            "type": "SCALAR",
            "count": 372,
            "bufferView": 26,
            "byteOffset": 0
        },
        {
            "componentType": 5126,
            "type": "VEC3",
            "count": 123,
            "bufferView": 27,
            "byteOffset": 0,
            "min": [
                -0.00118751521222293,
                -0.0134114921092987,
                -0.00317885400727391
            ],
            "max": [
                0.00118753430433571,
                0.00494251772761345,
                0.00413751602172852
            ]
        },
        {
            "componentType": 5126,
            "type": "VEC3",
            "count": 123,
            "bufferView": 28,
            "byteOffset": 0
        },
        {
            "componentType": 5126,
            "type": "VEC2",
            "count": 123,
            "bufferView": 29,
            "byteOffset": 0
        }
    ],
    "samplers": [
        {}
    ],
    "materials": [
        {
            "name": "_moblinn1SG",
            "alphaMode": "OPAQUE",
            "extras": {
                "fromFBX": {
                    "shadingModel": "Phong",
                    "isTruePBR": false
                }
            },
            "pbrMetallicRoughness": {
                "baseColorFactor": [
                    1.0,
                    1.0,
                    1.0,
                    1.0
                ],
                "metallicFactor": 0.400000005960464,
                "roughnessFactor": 0.447213590145111
            }
        },
        {
            "name": "_moblinn2SG",
            "alphaMode": "OPAQUE",
            "extras": {
                "fromFBX": {
                    "shadingModel": "Phong",
                    "isTruePBR": false
                }
            },
            "pbrMetallicRoughness": {
                "baseColorFactor": [
                    0.0,
                    0.0,
                    0.0,
                    1.0
                ],
                "metallicFactor": 0.400000005960464,
                "roughnessFactor": 0.447213590145111
            }
        }
    ],
    "meshes": [
        {
            "name": "ctrl_root_support1_group1_ctrl_turbine006",
            "primitives": [
                {
                    "material": 0,
                    "mode": 4,
                    "attributes": {
                        "NORMAL": 4,
                        "POSITION": 3,
                        "TEXCOORD_0": 5
                    },
                    "indices": 2
                }
            ]
        },
        {
            "name": "root1_mesh_root_ctrl_root005",
            "primitives": [
                {
                    "material": 0,
                    "mode": 4,
                    "attributes": {
                        "NORMAL": 8,
                        "POSITION": 7,
                        "TEXCOORD_0": 9
                    },
                    "indices": 6
                },
                {
                    "material": 1,
                    "mode": 4,
                    "attributes": {
                        "NORMAL": 20,
                        "POSITION": 19,
                        "TEXCOORD_0": 21
                    },
                    "indices": 18
                }
            ]
        },
        {
            "name": "ctrl_root_group1_ctrl_turbine1_blade013",
            "primitives": [
                {
                    "material": 0,
                    "mode": 4,
                    "attributes": {
                        "NORMAL": 12,
                        "POSITION": 11,
                        "TEXCOORD_0": 13
                    },
                    "indices": 10
                },
                {
                    "material": 1,
                    "mode": 4,
                    "attributes": {
                        "NORMAL": 24,
                        "POSITION": 23,
                        "TEXCOORD_0": 25
                    },
                    "indices": 22
                }
            ]
        },
        {
            "name": "ctrl_root_group1_ctrl_turbine1_turbine006",
            "primitives": [
                {
                    "material": 0,
                    "mode": 4,
                    "attributes": {
                        "NORMAL": 16,
                        "POSITION": 15,
                        "TEXCOORD_0": 17
                    },
                    "indices": 14
                },
                {
                    "material": 1,
                    "mode": 4,
                    "attributes": {
                        "NORMAL": 28,
                        "POSITION": 27,
                        "TEXCOORD_0": 29
                    },
                    "indices": 26
                }
            ]
        }
    ],
    "animations": [
        {
            "name": "Take 001",
            "channels": [
                {
                    "sampler": 0,
                    "target": {
                        "node": 4,
                        "path": "rotation"
                    }
                }
            ],
            "samplers": [
                {
                    "input": 0,
                    "interpolation": "LINEAR",
                    "output": 1
                }
            ]
        }
    ],
    "nodes": [
        {
            "name": "RootNode",
            "translation": [
                0.0,
                0.0,
                0.0
            ],
            "rotation": [
                0.0,
                0.0,
                0.0,
                1.0
            ],
            "scale": [
                1.0,
                1.0,
                1.0
            ],
            "children": [
                1
            ]
        },
        {
            "name": "turbine",
            "translation": [
                -1.1734473340256e-40,
                2.28881830821592e-07,
                6.94063129380082e-42
            ],
            "rotation": [
                -0.706798374652863,
                0.0208824723958969,
                0.0208824723958969,
                0.706798374652863
            ],
            "scale": [
                1.0,
                1.0,
                1.0
            ],
            "children": [
                2,
                3,
                4,
                5
            ]
        },
        {
            "name": "ctrl_root_support1_group1_ctrl_turbine006",
            "translation": [
                -0.0063223266042769,
                -0.107532650232315,
                28.1144351959229
            ],
            "rotation": [
                -8.9658774493856e-33,
                9.26542279733389e-33,
                0.685994505882263,
                0.72760671377182
            ],
            "scale": [
                244.757415771484,
                244.757415771484,
                244.757415771484
            ],
            "mesh": 0
        },
        {
            "name": "root1_mesh_root_ctrl_root005",
            "translation": [
                5.79833977099042e-06,
                6.40869075141381e-06,
                14.0438241958618
            ],
            "rotation": [
                -8.9658774493856e-33,
                9.26542279733389e-33,
                0.685994505882263,
                0.72760671377182
            ],
            "scale": [
                244.757415771484,
                244.757415771484,
                244.757415771484
            ],
            "mesh": 1
        },
        {
            "name": "ctrl_root_group1_ctrl_turbine1_blade013",
            "translation": [
                -1.47174310684204,
                -0.0211851112544537,
                28.74245262146
            ],
            "rotation": [
                -8.9658774493856e-33,
                9.26542279733389e-33,
                0.685994505882263,
                0.72760671377182
            ],
            "scale": [
                244.757415771484,
                244.757415771484,
                244.757415771484
            ],
            "mesh": 2
        },
        {
            "name": "ctrl_root_group1_ctrl_turbine1_turbine006",
            "translation": [
                0.756861329078674,
                -0.152513101696968,
                28.842306137085
            ],
            "rotation": [
                -8.9658774493856e-33,
                9.26542279733389e-33,
                0.685994505882263,
                0.72760671377182
            ],
            "scale": [
                244.757415771484,
                244.757415771484,
                244.757415771484
            ],
            "mesh": 3
        }
    ]
}