{
    "asset": {
        "generator": "FBX2glTF v0.9.6",
        "version": "2.0"
    },
    "scene": 0,
    "buffers": [
        {
            "byteLength": 7344,
            "uri": "buffer.bin"
        }
    ],
    "bufferViews": [
        {
            "buffer": 0,
            "byteLength": 432,
            "byteOffset": 0,
            "target": 34963
        },
        {
            "buffer": 0,
            "byteLength": 2592,
            "byteOffset": 432,
            "target": 34962
        },
        {
            "buffer": 0,
            "byteLength": 2592,
            "byteOffset": 3024,
            "target": 34962
        },
        {
            "buffer": 0,
            "byteLength": 1728,
            "byteOffset": 5616,
            "target": 34962
        }
    ],
    "scenes": [
        {
            "name": "Root Scene",
            "nodes": [
                0
            ]
        }
    ],
    "accessors": [
        {
            "componentType": 5123,
            "type": "SCALAR",
            "count": 216,
            "bufferView": 0,
            "byteOffset": 0
        },
        {
            "componentType": 5126,
            "type": "VEC3",
            "count": 216,
            "bufferView": 1,
            "byteOffset": 0,
            "min": [
                -0.211006328463554,
                -0.211799681186676,
                -0.211006879806519
            ],
            "max": [
                0.211006119847298,
                0.211799696087837,
                0.211007043719292
            ]
        },
        {
            "componentType": 5126,
            "type": "VEC3",
            "count": 216,
            "bufferView": 2,
            "byteOffset": 0
        },
        {
            "componentType": 5126,
            "type": "VEC2",
            "count": 216,
            "bufferView": 3,
            "byteOffset": 0
        }
    ],
	"extensionsRequired": [
		"KHR_materials_pbrSpecularGlossiness"
	],
	"extensionsUsed": [
		"KHR_materials_pbrSpecularGlossiness"
	],
    "images": [
        {
            "uri": "textures/crystal_color.png"
        },
        {
            "uri": "textures/crystal_specular.png"
        }
    ],
    "samplers": [
        {}
    ],
    "textures": [
        {
            "sampler": 0,
            "source": 0
        },
        {
            "sampler": 0,
            "source": 1
        }
    ],
    "materials": [
		{
		  "doubleSided": true,
		  "extensions": {
			"KHR_materials_pbrSpecularGlossiness": {
			  "diffuseFactor": [
				1,
				1,
				1,
				1
			  ],
			  "diffuseTexture": {
				"index": 0,
				"texCoord": 0
			  },
			  "glossinessFactor": 0.8,
			  "specularFactor": [
				1,
				1,
				1
			  ],
			  "specularGlossinessTexture": {
				"index": 1,
				"texCoord": 0
			  }
			}
		  },
		  "name": "crystal_ball"
		}
	],
    "materials": [
        {
            "name": "alc_crystalls",
            "alphaMode": "OPAQUE",
            "extras": {
                "fromFBX": {
                    "shadingModel": "Phong",
                    "isTruePBR": false
                }
            },
            "pbrMetallicRoughness": {
                "baseColorTexture": {
                    "index": 0,
                    "texCoord": 0
                },
                "baseColorFactor": [
                    1.0,
                    1.0,
                    1.0,
                    1.0
                ],
                "metallicFactor": 0.400000005960464,
                "roughnessFactor": 0.250560253858566
            }
        }
    ],
    "meshes": [
        {
            "name": "ALC_Crystall_Ball",
            "primitives": [
                {
                    "material": 0,
                    "mode": 4,
                    "attributes": {
                        "NORMAL": 2,
                        "POSITION": 1,
                        "TEXCOORD_0": 3
                    },
                    "indices": 0
                }
            ]
        }
    ],
    "nodes": [
        {
            "name": "RootNode",
            "translation": [
                0.0,
                0.0,
                0.0
            ],
            "rotation": [
                0.0,
                0.0,
                0.0,
                1.0
            ],
            "scale": [
                1.0,
                1.0,
                1.0
            ],
            "children": [
                1
            ]
        },
        {
            "name": "ALC_Crystall_Ball",
            "translation": [
                -0.00543685257434845,
                0.0,
                -0.0128467082977295
            ],
            "rotation": [
                -0.70710676908493,
                -0.0,
                0.0,
                0.70710676908493
            ],
            "scale": [
                100.0,
                100.0,
                100.0
            ],
            "mesh": 0
        }
    ]
}