{
    "asset": {
        "generator": "FBX2glTF v0.9.6",
        "version": "2.0"
    },
    "scene": 0,
    "buffers": [
        {
            "byteLength": 20400,
            "uri": "shield.bin"
        }
    ],
    "bufferViews": [
        {
            "buffer": 0,
            "byteLength": 816,
            "byteOffset": 0,
            "target": 34963
        },
        {
            "buffer": 0,
            "byteLength": 4896,
            "byteOffset": 816,
            "target": 34962
        },
        {
            "buffer": 0,
            "byteLength": 4896,
            "byteOffset": 5712,
            "target": 34962
        },
        {
            "buffer": 0,
            "byteLength": 6528,
            "byteOffset": 10608,
            "target": 34962
        },
        {
            "buffer": 0,
            "byteLength": 3264,
            "byteOffset": 17136,
            "target": 34962
        }
    ],
    "scenes": [
        {
            "name": "Root Scene",
            "nodes": [
                0
            ]
        }
    ],
    "accessors": [
        {
            "componentType": 5123,
            "type": "SCALAR",
            "count": 408,
            "bufferView": 0,
            "byteOffset": 0
        },
        {
            "componentType": 5126,
            "type": "VEC3",
            "count": 408,
            "bufferView": 1,
            "byteOffset": 0,
            "min": [
                -0.293743520975113,
                -0.358297497034073,
                -0.106100462377071
            ],
            "max": [
                0.293743520975113,
                0.358297497034073,
                0.106100462377071
            ]
        },
        {
            "componentType": 5126,
            "type": "VEC3",
            "count": 408,
            "bufferView": 2,
            "byteOffset": 0
        },
        {
            "componentType": 5126,
            "type": "VEC4",
            "count": 408,
            "bufferView": 3,
            "byteOffset": 0
        },
        {
            "componentType": 5126,
            "type": "VEC2",
            "count": 408,
            "bufferView": 4,
            "byteOffset": 0
        }
    ],
    "images": [
        {
            "uri": "textures/shield_color.png"
        },
        {
            "uri": "textures/shield_normals.png"
        },
        {
            "uri": "textures/shield_specular.png"
        }
    ],
    "samplers": [
        {}
    ],
    "textures": [
        {
            "sampler": 0,
            "source": 0
        },
        {
            "sampler": 0,
            "source": 1
        },
        {
            "sampler": 0,
            "source": 2
        }
    ],
    "materials": [
        {
            "doubleSided" : true,
            "emissiveFactor" : [
                0,
                0,
                0
            ],
            "name" : "shield",
            "normalTexture" : {
                "index" : 1,
                "texCoord" : 0
            },
            "pbrMetallicRoughness" : {
                "baseColorTexture" : {
                    "index" : 0,
                    "texCoord" : 0
                },
                "metallicRoughnessTexture" : {
                    "index" : 2,
                    "texCoord" : 0
                }
            }
        }
	],
    "meshes": [
        {
            "name": "SH_Shield_C_LOD",
            "primitives": [
                {
                    "material": 0,
                    "mode": 4,
                    "attributes": {
                        "NORMAL": 2,
                        "POSITION": 1,
                        "TANGENT": 3,
                        "TEXCOORD_0": 4
                    },
                    "indices": 0
                }
            ]
        }
    ],
    "nodes": [
        {
            "name": "RootNode",
            "translation": [
                0.0,
                0.0,
                0.0
            ],
            "rotation": [
                0.0,
                0.0,
                0.0,
                1.0
            ],
            "scale": [
                1.0,
                1.0,
                1.0
            ],
            "children": [
                1
            ]
        },
        {
            "name": "SH_Shield_C_LOD",
            "translation": [
                0.0,
                0.0,
                0.0
            ],
            "rotation": [
                -0.707106649875641,
                4.3628580748134e-09,
                1.07013387040666e-09,
                0.707106947898865
            ],
            "scale": [
                99.9999923706055,
                100.000015258789,
                100.0
            ],
            "mesh": 0
        }
    ]
}