{
  "accessors": [
    {
      "bufferView": 2,
      "componentType": 5126,
      "count": 877,
      "max": [
        392.1336669921875,
        139.66487121582031,
        392.13357543945312
      ],
      "min": [
        -392.1336669921875,
        13.464870452880859,
        -392.13369750976562
      ],
      "type": "VEC3"
    },
    {
      "bufferView": 2,
      "byteOffset": 10524,
      "componentType": 5126,
      "count": 877,
      "max": [
        1,
        1,
        1
      ],
      "min": [
        -1,
        -0.51109182834625244,
        -1
      ],
      "type": "VEC3"
    },
    {
      "bufferView": 3,
      "componentType": 5126,
      "count": 877,
      "max": [
        0.99967962503433228,
        1,
        0.9639737606048584,
        1
      ],
      "min": [
        -1,
        -1,
        -0.99968463182449341,
        1
      ],
      "type": "VEC4"
    },
    {
      "bufferView": 1,
      "componentType": 5126,
      "count": 877,
      "max": [
        0.99305379390716553,
        0.99305558204650879
      ],
      "min": [
        0.0066895484924316406,
        0.0069444179534912109
      ],
      "type": "VEC2"
    },
    {
      "bufferView": 1,
      "byteOffset": 7016,
      "componentType": 5126,
      "count": 877,
      "max": [
        0.99305379390716553,
        0.99305558204650879
      ],
      "min": [
        0.0066895484924316406,
        0.0069444179534912109
      ],
      "type": "VEC2"
    },
    {
      "bufferView": 1,
      "byteOffset": 14032,
      "componentType": 5126,
      "count": 877,
      "max": [
        0.99305379390716553,
        0.99305558204650879
      ],
      "min": [
        0.0066895484924316406,
        0.0069444179534912109
      ],
      "type": "VEC2"
    },
    {
      "bufferView": 1,
      "byteOffset": 21048,
      "componentType": 5126,
      "count": 877,
      "max": [
        0.99305379390716553,
        0.99305558204650879
      ],
      "min": [
        0.0066895484924316406,
        0.0069444179534912109
      ],
      "type": "VEC2"
    },
    {
      "bufferView": 1,
      "byteOffset": 28064,
      "componentType": 5126,
      "count": 877,
      "max": [
        0.99305379390716553,
        0.99305558204650879
      ],
      "min": [
        0.0066895484924316406,
        0.0069444179534912109
      ],
      "type": "VEC2"
    },
    {
      "bufferView": 1,
      "byteOffset": 35080,
      "componentType": 5126,
      "count": 877,
      "max": [
        0.99305379390716553,
        0.99305558204650879
      ],
      "min": [
        0.0066895484924316406,
        0.0069444179534912109
      ],
      "type": "VEC2"
    },
    {
      "bufferView": 1,
      "byteOffset": 42096,
      "componentType": 5126,
      "count": 877,
      "max": [
        0.99305379390716553,
        0.99305558204650879
      ],
      "min": [
        0.0066895484924316406,
        0.0069444179534912109
      ],
      "type": "VEC2"
    },
    {
      "bufferView": 1,
      "byteOffset": 49112,
      "componentType": 5126,
      "count": 877,
      "max": [
        0.99305379390716553,
        0.99305558204650879
      ],
      "min": [
        0.0066895484924316406,
        0.0069444179534912109
      ],
      "type": "VEC2"
    },
    {
      "bufferView": 1,
      "byteOffset": 56128,
      "componentType": 5126,
      "count": 877,
      "max": [
        0.99305379390716553,
        0.99305558204650879
      ],
      "min": [
        0.0066895484924316406,
        0.0069444179534912109
      ],
      "type": "VEC2"
    },
    {
      "bufferView": 1,
      "byteOffset": 63144,
      "componentType": 5126,
      "count": 877,
      "max": [
        0.99305379390716553,
        0.99305558204650879
      ],
      "min": [
        0.0066895484924316406,
        0.0069444179534912109
      ],
      "type": "VEC2"
    },
    {
      "bufferView": 0,
      "componentType": 5125,
      "count": 1740,
      "max": [
        876
      ],
      "min": [
        0
      ],
      "type": "SCALAR"
    }
  ],
  "asset": {
    "extras": {
      "author": "Rolo (https://sketchfab.com/RoloTheC)",
      "license": "CC-BY-NC-4.0 (http://creativecommons.org/licenses/by-nc/4.0/)",
      "source": "https://sketchfab.com/3d-models/land-mine-6ae1d0bf6bb34086a8e8fc05bca87677",
      "title": "Land Mine"
    },
    "generator": "Sketchfab-4.78.0",
    "version": "2.0"
  },
  "bufferViews": [
    {
      "buffer": 0,
      "byteLength": 6960,
      "byteOffset": 0,
      "name": "floatBufferViews",
      "target": 34963
    },
    {
      "buffer": 0,
      "byteLength": 70160,
      "byteOffset": 6960,
      "byteStride": 8,
      "name": "floatBufferViews",
      "target": 34962
    },
    {
      "buffer": 0,
      "byteLength": 21048,
      "byteOffset": 77120,
      "byteStride": 12,
      "name": "floatBufferViews",
      "target": 34962
    },
    {
      "buffer": 0,
      "byteLength": 14032,
      "byteOffset": 98168,
      "byteStride": 16,
      "name": "floatBufferViews",
      "target": 34962
    }
  ],
  "buffers": [
    {
      "byteLength": 112200,
      "uri": "scene.bin"
    }
  ],
  "images": [
    {
      "uri": "textures/lambert1_metallicRoughness.png"
    },
    {
      "uri": "textures/lambert1_emissive.png"
    },
    {
      "uri": "textures/lambert1_normal.png"
    },
    {
      "uri": "textures/lambert1_baseColor.png"
    }
  ],
  "materials": [
    {
      "doubleSided": true,
      "emissiveFactor": [
        1,
        1,
        1
      ],
      "emissiveTexture": {
        "index": 1,
        "texCoord": 0
      },
      "name": "lambert1",
      "normalTexture": {
        "index": 2,
        "scale": 1,
        "texCoord": 0
      },
      "occlusionTexture": {
        "index": 0,
        "strength": 1,
        "texCoord": 0
      },
      "pbrMetallicRoughness": {
        "baseColorFactor": [
          1,
          1,
          1,
          1
        ],
        "baseColorTexture": {
          "index": 3,
          "texCoord": 0
        },
        "metallicFactor": 1,
        "metallicRoughnessTexture": {
          "index": 0,
          "texCoord": 0
        },
        "roughnessFactor": 1
      }
    }
  ],
  "meshes": [
    {
      "name": "pCylinder1_lambert1_0",
      "primitives": [
        {
          "attributes": {
            "NORMAL": 1,
            "POSITION": 0,
            "TANGENT": 2,
            "TEXCOORD_0": 3,
            "TEXCOORD_1": 4,
            "TEXCOORD_2": 5,
            "TEXCOORD_3": 6,
            "TEXCOORD_4": 7,
            "TEXCOORD_5": 8,
            "TEXCOORD_6": 9,
            "TEXCOORD_7": 10,
            "TEXCOORD_8": 11,
            "TEXCOORD_9": 12
          },
          "indices": 13,
          "material": 0,
          "mode": 4
        }
      ]
    }
  ],
  "nodes": [
    {
      "children": [
        1
      ],
      "name": "RootNode (gltf orientation matrix)",
      "rotation": [
        -0.70710678118654746,
        -0,
        -0,
        0.70710678118654757
      ]
    },
    {
      "children": [
        2
      ],
      "name": "RootNode (model correction matrix)"
    },
    {
      "children": [
        3
      ],
      "matrix": [
        1,
        0,
        0,
        0,
        0,
        0,
        1,
        0,
        0,
        -1,
        0,
        0,
        0,
        0,
        0,
        1
      ],
      "name": "LandMine.Fbx"
    },
    {
      "children": [
        4
      ],
      "name": "RootNode"
    },
    {
      "children": [
        5
      ],
      "name": "pCylinder1"
    },
    {
      "mesh": 0,
      "name": "pCylinder1_lambert1_0"
    }
  ],
  "samplers": [
    {
      "magFilter": 9729,
      "minFilter": 9987,
      "wrapS": 10497,
      "wrapT": 10497
    }
  ],
  "scene": 0,
  "scenes": [
    {
      "name": "OSG_Scene",
      "nodes": [
        0
      ]
    }
  ],
  "textures": [
    {
      "sampler": 0,
      "source": 0
    },
    {
      "sampler": 0,
      "source": 1
    },
    {
      "sampler": 0,
      "source": 2
    },
    {
      "sampler": 0,
      "source": 3
    }
  ]
}

